<svg width="103" height="26" viewBox="0 0 103 26" fill="none" xmlns="http://www.w3.org/2000/svg">
<path fill-rule="evenodd" clip-rule="evenodd" d="M0.426561 1.35287C0.155688 1.6432 0 2.09006 0 2.67073V23.3248C0 23.9055 0.155688 24.3523 0.436687 24.6326L0.510101 24.6944L12.1146 13.1215V12.8614L0.499975 1.29102L0.426561 1.35287Z" fill="url(#paint0_linear_906_49)"/>
<path fill-rule="evenodd" clip-rule="evenodd" d="M15.9752 16.995L12.1045 13.1335V12.8634L15.9765 9.00195L16.06 9.05371L20.6395 11.649C21.9508 12.3862 21.9508 13.6006 20.6395 14.3479L16.06 16.9432C16.0587 16.9432 15.9752 16.995 15.9752 16.995Z" fill="url(#paint1_linear_906_49)"/>
<path fill-rule="evenodd" clip-rule="evenodd" d="M16.0587 16.9428L12.1045 12.998L0.426575 24.6442C0.853136 25.1012 1.57082 25.1529 2.37331 24.7061L16.0587 16.9428Z" fill="url(#paint2_linear_906_49)"/>
<path fill-rule="evenodd" clip-rule="evenodd" d="M16.0587 9.0548L2.37331 1.30164C1.57209 0.84468 0.853136 0.906533 0.426575 1.36349L12.1032 12.9983L16.0587 9.0548Z" fill="url(#paint3_linear_906_49)"/>
<path opacity="0.2" fill-rule="evenodd" clip-rule="evenodd" d="M15.9752 16.8594L2.38351 24.5608C1.62405 24.9963 0.946869 24.966 0.510182 24.5709L0.436768 24.6441L0.510182 24.706C0.946869 25.0998 1.62405 25.1314 2.38351 24.6959L16.0689 16.9427L15.9752 16.8594Z" fill="black"/>
<path opacity="0.12" fill-rule="evenodd" clip-rule="evenodd" d="M20.6383 14.2124L15.9651 16.8595L16.0486 16.9428L20.6281 14.3475C21.2838 13.9738 21.6066 13.4866 21.6066 12.998C21.5648 13.4449 21.2319 13.8703 20.6383 14.2124Z" fill="black"/>
<path opacity="0.25" fill-rule="evenodd" clip-rule="evenodd" d="M2.3733 1.43618L20.6382 11.7847C21.2319 12.1167 21.5648 12.5522 21.6166 12.999C21.6166 12.5118 21.2939 12.0233 20.6382 11.6496L2.3733 1.30111C1.06197 0.55382 0 1.17614 0 2.67073V2.8058C0 1.31121 1.06197 0.698986 2.3733 1.43618Z" fill="white"/>
<path fill-rule="evenodd" clip-rule="evenodd" d="M26.0747 12.3422C26.0747 9.03363 28.8632 6.33984 32.1808 6.33984C34.0148 6.33984 35.3198 7.0581 36.3046 7.99348L35.1452 9.14977C34.4414 8.49084 33.487 7.9796 32.1795 7.9796C29.7568 7.9796 27.8633 9.92483 27.8633 12.3409C27.8633 14.757 29.7568 16.7047 32.1782 16.7047C33.749 16.7047 34.6427 16.0761 35.2161 15.503C35.6856 15.0347 35.9932 14.3619 36.1122 13.4391H32.1808V11.8032H37.7147C37.7729 12.096 37.8033 12.4469 37.8033 12.8269C37.8033 14.0551 37.4653 15.5788 36.378 16.6631C35.3198 17.7613 33.9705 18.347 32.1795 18.347C28.8607 18.347 26.0722 15.6558 26.0722 12.3447L26.0747 12.3422ZM42.2765 10.6153C40.1335 10.6153 38.3842 12.2412 38.3842 14.4793C38.3842 16.706 40.1323 18.3432 42.2765 18.3432C44.4207 18.3432 46.1661 16.7035 46.1661 14.478C46.1661 12.2399 44.4194 10.6141 42.2765 10.6153ZM42.2765 16.8234C41.1031 16.8234 40.0892 15.8577 40.0892 14.4805C40.0892 13.0895 41.1018 12.1377 42.2765 12.1377C43.4498 12.1377 44.4624 13.0882 44.4624 14.4805C44.4624 15.8565 43.4511 16.8234 42.2765 16.8234ZM50.7634 10.6153C48.6204 10.6153 46.8737 12.2412 46.8737 14.4793C46.8737 16.706 48.6204 18.3432 50.7634 18.3432C52.9063 18.3432 54.6531 16.7035 54.6531 14.478C54.6531 12.2399 52.9076 10.6141 50.7634 10.6153ZM50.7634 16.8234C49.59 16.8234 48.5761 15.8577 48.5761 14.4805C48.5761 13.0895 49.5888 12.1377 50.7634 12.1377C51.9367 12.1377 52.9506 13.0882 52.9506 14.4805C52.9506 15.8565 51.9367 16.8234 50.7634 16.8234ZM61.1793 10.8501V11.4787H61.1211C60.7401 11.023 60.006 10.6141 59.082 10.6141C57.1441 10.6141 55.3657 12.3131 55.3657 14.4957C55.3657 16.6606 57.1428 18.3458 59.082 18.3458C60.006 18.3458 60.7401 17.9368 61.1211 17.4684H61.1793V18.0239C61.1793 19.502 60.387 20.2935 59.1098 20.2935C58.0668 20.2935 57.4213 19.5462 57.1567 18.9189L55.6733 19.5336C56.0986 20.5573 57.2301 21.8171 59.1085 21.8171C61.1034 21.8171 62.7919 20.6444 62.7919 17.7903V10.8488L61.1793 10.8501ZM59.2275 16.8234C58.0542 16.8234 57.0681 15.8413 57.0681 14.4957C57.0681 13.1349 58.0529 12.1389 59.2275 12.1389C60.387 12.1389 61.297 13.1336 61.297 14.4957C61.2983 15.8413 60.3882 16.8234 59.2275 16.8234ZM63.9678 6.7501H65.6715V18.111H63.9678V6.7501ZM70.3409 16.8234C69.4751 16.8234 68.8574 16.427 68.4638 15.6532L73.6458 13.5136L73.4673 13.0743C73.1458 12.2122 72.161 10.6153 70.1498 10.6153C68.1537 10.6153 66.4942 12.1819 66.4942 14.4805C66.4942 16.6454 68.1385 18.3445 70.3409 18.3445C72.118 18.3445 73.1458 17.2627 73.5711 16.6315L72.2497 15.7542C71.8079 16.3993 71.2054 16.8247 70.3409 16.8234ZM70.208 12.1086C70.8826 12.1086 71.4548 12.4457 71.6459 12.9279L68.1802 14.3631C68.1372 12.8698 69.3409 12.1086 70.208 12.1086ZM81.1214 6.7501H77.0481V18.111H78.7481V13.8077H81.1226C83.0073 13.8077 84.8604 12.4469 84.8604 10.2783C84.8604 8.1134 83.0086 6.75136 81.1252 6.75136L81.1214 6.7501ZM81.1657 12.226H78.7481V8.33052H81.1657C82.4365 8.33052 83.1605 9.38203 83.1605 10.2783C83.1605 11.1594 82.4365 12.226 81.1657 12.226ZM87.497 18.111V6.7501H85.7971V18.111H87.497ZM95.1333 18.0908V13.7358C95.1333 11.7186 93.622 10.5939 91.6715 10.5939C90.4424 10.5939 89.1678 11.1354 88.64 12.3333L90.1488 12.9607C90.4715 12.3333 91.0715 12.1276 91.7031 12.1276C92.5815 12.1276 93.4752 12.654 93.4891 13.5906V13.708C93.1815 13.5325 92.5233 13.2687 91.7158 13.2687C90.0893 13.2687 88.4337 14.1599 88.4337 15.8262C88.4337 17.3473 89.7678 18.3256 91.2626 18.3256C92.4069 18.3256 93.036 17.8143 93.4309 17.216H93.4891V18.0933H95.1321L95.1333 18.0908ZM91.4689 16.8209C90.912 16.8209 90.1348 16.5432 90.1348 15.8577C90.1348 14.9804 91.1031 14.6421 91.9385 14.6421C92.6866 14.6421 93.0372 14.8024 93.4929 15.0221C93.3625 16.042 92.498 16.8083 91.4689 16.8209ZM101.112 10.8425L99.1622 15.7668H99.104L97.0813 10.8425H95.2498L98.2825 17.7272L96.5522 21.5558H98.3256L103 10.8425H101.112Z" fill="#808285"/>
<defs>
<linearGradient id="paint0_linear_906_49" x1="11.0726" y1="2.44872" x2="-7.5091" y2="7.41331" gradientUnits="userSpaceOnUse">
<stop stop-color="#00A0FF"/>
<stop offset="0.007" stop-color="#00A1FF"/>
<stop offset="0.26" stop-color="#00BEFF"/>
<stop offset="0.512" stop-color="#00D2FF"/>
<stop offset="0.76" stop-color="#00DFFF"/>
<stop offset="1" stop-color="#00E3FF"/>
</linearGradient>
<linearGradient id="paint1_linear_906_49" x1="22.3459" y1="12.999" x2="-0.318675" y2="12.999" gradientUnits="userSpaceOnUse">
<stop stop-color="#FFE000"/>
<stop offset="0.409" stop-color="#FFBD00"/>
<stop offset="0.775" stop-color="#FFA500"/>
<stop offset="1" stop-color="#FF9C00"/>
</linearGradient>
<linearGradient id="paint2_linear_906_49" x1="13.9085" y1="15.144" x2="-0.954346" y2="40.2274" gradientUnits="userSpaceOnUse">
<stop stop-color="#FF3A44"/>
<stop offset="1" stop-color="#C31162"/>
</linearGradient>
<linearGradient id="paint3_linear_906_49" x1="-2.51304" y1="-5.51716" x2="4.11772" y2="5.68543" gradientUnits="userSpaceOnUse">
<stop stop-color="#32A071"/>
<stop offset="0.069" stop-color="#2DA771"/>
<stop offset="0.476" stop-color="#15CF74"/>
<stop offset="0.801" stop-color="#06E775"/>
<stop offset="1" stop-color="#00F076"/>
</linearGradient>
</defs>
</svg>
