<svg width="13" height="18" viewBox="0 0 13 18" fill="none" xmlns="http://www.w3.org/2000/svg">
<path d="M12.6672 16.5682C12.4729 16.4665 12.2786 16.3629 12.0843 16.2612C11.6169 16.0157 11.1479 15.7682 10.6805 15.5227C10.1177 15.2272 9.55485 14.9299 8.99201 14.6344C8.50791 14.3793 8.0238 14.1242 7.53969 13.869C7.30852 13.7481 7.07736 13.6235 6.84619 13.5045C6.70213 13.4297 6.57315 13.3856 6.41066 13.4086C6.31686 13.4239 6.23813 13.4604 6.1527 13.5045C6.12757 13.5179 6.10244 13.5314 6.07899 13.5429C5.96006 13.6062 5.83945 13.6695 5.72052 13.7328C5.28164 13.963 4.84276 14.1951 4.40388 14.4253C3.84439 14.7208 3.2849 15.0143 2.72541 15.3097C2.21785 15.5764 1.70862 15.845 1.20106 16.1116C0.924663 16.2574 0.648269 16.4032 0.371875 16.549C0.358474 16.5567 0.346749 16.5624 0.333348 16.5701C0.670046 16.7907 1.00507 17.0113 1.34177 17.232C1.34177 17.0938 1.34177 16.9576 1.34177 16.8195C1.34177 16.4454 1.34177 16.0732 1.34177 15.6992C1.34177 15.1467 1.34177 14.5961 1.34177 14.0436C1.34177 13.3721 1.34177 12.6988 1.34177 12.0273C1.34177 11.2926 1.34177 10.5559 1.34177 9.82119C1.34177 9.08261 1.34177 8.34594 1.34177 7.60736C1.34177 6.91865 1.34177 6.22995 1.34177 5.54125C1.34177 4.96189 1.34177 4.38253 1.34177 3.80318C1.34177 3.39072 1.34177 2.97827 1.34177 2.56773C1.34177 2.37973 1.34177 2.19364 1.34177 2.00564C1.34177 1.94617 1.34512 1.88862 1.35014 1.83107C1.34177 1.89821 1.33339 1.96727 1.32669 2.03442C1.34009 1.92315 1.36522 1.81764 1.40375 1.71404C1.38197 1.77543 1.35852 1.83682 1.33674 1.89821C1.37192 1.80613 1.41715 1.7198 1.46908 1.63923C1.4339 1.69102 1.39872 1.74282 1.36354 1.79462C1.42217 1.70829 1.48918 1.63347 1.56288 1.56633C1.51765 1.60661 1.47243 1.6469 1.4272 1.68719C1.49755 1.6258 1.57293 1.57592 1.65334 1.53563C1.59973 1.56057 1.54613 1.58743 1.49253 1.61237C1.58298 1.57016 1.67679 1.53947 1.77227 1.52412C1.71364 1.53371 1.65334 1.54331 1.59471 1.55098C1.71699 1.53371 1.84095 1.54139 1.96323 1.54139C2.18937 1.54139 2.41552 1.54139 2.64333 1.54139C3.40718 1.54139 4.17104 1.54139 4.93489 1.54139C5.86458 1.54139 6.79594 1.54139 7.72563 1.54139C8.52633 1.54139 9.32704 1.54139 10.1277 1.54139C10.503 1.54139 10.8799 1.53755 11.2551 1.54139C11.3037 1.54139 11.3539 1.54522 11.4025 1.55098C11.3439 1.54139 11.2836 1.5318 11.2249 1.52412C11.3221 1.53947 11.4142 1.56825 11.5047 1.61237C11.4511 1.58743 11.3975 1.56057 11.3439 1.53563C11.4243 1.57592 11.4997 1.62772 11.57 1.68719C11.5248 1.6469 11.4796 1.60661 11.4343 1.56633C11.5097 1.63347 11.575 1.71021 11.6337 1.79462C11.5985 1.74282 11.5633 1.69102 11.5281 1.63923C11.5817 1.7198 11.6253 1.80613 11.6605 1.89821C11.6387 1.83682 11.6152 1.77543 11.5935 1.71404C11.6303 1.81764 11.6571 1.92507 11.6705 2.03442C11.6621 1.96727 11.6538 1.89821 11.6471 1.83107C11.6655 2.00564 11.6554 2.18597 11.6554 2.36246C11.6554 2.72504 11.6554 3.08762 11.6554 3.45019C11.6554 3.99502 11.6554 4.53792 11.6554 5.08275C11.6554 5.75035 11.6554 6.41795 11.6554 7.08555C11.6554 7.81838 11.6554 8.55313 11.6554 9.28596C11.6554 10.0245 11.6554 10.7631 11.6554 11.5017C11.6554 12.1942 11.6554 12.8887 11.6554 13.5812C11.6554 14.1683 11.6554 14.7534 11.6554 15.3404C11.6554 15.7625 11.6554 16.1845 11.6554 16.6066C11.6554 16.8061 11.6538 17.0075 11.6554 17.207C11.6554 17.2147 11.6554 17.2243 11.6554 17.232C11.6554 17.6329 11.9637 18.0185 12.3255 17.9993C12.689 17.9801 12.9955 17.6617 12.9955 17.232C12.9955 16.9634 12.9955 16.6948 12.9955 16.4281C12.9955 15.7337 12.9955 15.0392 12.9955 14.3448C12.9955 13.3875 12.9955 12.4321 12.9955 11.4748C12.9955 10.4216 12.9955 9.36653 12.9955 8.31333C12.9955 7.32727 12.9955 6.34122 12.9955 5.35516C12.9955 4.60123 12.9955 3.8473 12.9955 3.09337C12.9955 2.73655 12.9955 2.37781 12.9955 2.02099C12.9939 1.31502 12.6823 0.660844 12.1563 0.290593C11.8531 0.0718958 11.5047 0.00283352 11.1512 0.00283352C10.6604 0.00283352 10.1713 0.00283352 9.68049 0.00283352C8.84293 0.00283352 8.00537 0.00283352 7.16782 0.00283352C6.26325 0.00283352 5.35702 0.00283352 4.45245 0.00283352C3.75896 0.00283352 3.06714 0.00283352 2.37364 0.00283352C1.8309 0.00283352 1.25801 -0.0528 0.785629 0.328961C0.417103 0.624394 0.112233 1.06563 0.0385277 1.58743C0.0184263 1.73323 0 1.87711 0 2.02291C0 2.14568 0 2.27038 0 2.39316C0 2.97635 0 3.55954 0 4.14465C0 5.04054 0 5.93452 0 6.83041C0 7.8721 0 8.91379 0 9.95548C0 10.9799 0 12.0043 0 13.0268C0 13.869 0 14.7093 0 15.5514C0 16.0464 0 16.5394 0 17.0344C0 17.0996 0 17.1648 0 17.232C0 17.5024 0.127309 17.7576 0.331673 17.8938C0.43553 17.9629 0.549438 17.9974 0.670046 17.9993C0.790654 17.9993 0.902887 17.9648 1.00842 17.8938C1.20106 17.7921 1.3937 17.6905 1.58633 17.5907C2.05202 17.3451 2.51602 17.1015 2.9817 16.8559C3.54119 16.5605 4.10236 16.2651 4.66184 15.9716C5.14763 15.7145 5.63509 15.4594 6.12087 15.2023C6.35706 15.0776 6.59493 14.9587 6.82777 14.8301C6.83112 14.8282 6.83447 14.8263 6.83782 14.8244C6.61168 14.8244 6.38721 14.8244 6.16107 14.8244C6.35371 14.926 6.54635 15.0277 6.73899 15.1275C7.20467 15.373 7.66867 15.6167 8.13436 15.8622C8.69384 16.1577 9.25501 16.4531 9.8145 16.7466C10.3003 17.0037 10.7877 17.2588 11.2735 17.5159C11.5097 17.6406 11.7442 17.7653 11.9804 17.888C11.9838 17.89 11.9871 17.8919 11.9905 17.8938C12.158 17.982 12.3221 18.03 12.5064 17.9705C12.6622 17.9207 12.8297 17.7845 12.9068 17.6176C12.9888 17.4391 13.0307 17.2243 12.9738 17.0267C12.9235 16.8464 12.823 16.6488 12.6672 16.5682Z" fill="#008660"/>
<line x1="6.5" y1="5" x2="6.5" y2="10" stroke="#008660"/>
<line x1="4" y1="7.5" x2="9" y2="7.5" stroke="#008660"/>
</svg>
