<svg width="8" height="11" viewBox="0 0 8 11" fill="none" xmlns="http://www.w3.org/2000/svg">
<rect x="0.5" y="3.5" width="7" height="7" rx="0.5" stroke="#5D6060"/>
<circle cx="4" cy="7" r="1" fill="#5D6060"/>
<mask id="path-3-inside-1_965_25" fill="white">
<path d="M6 3C6 2.60603 5.94827 2.21593 5.84776 1.85195C5.74725 1.48797 5.59993 1.15726 5.41421 0.87868C5.2285 0.600104 5.00802 0.379125 4.76537 0.228361C4.52272 0.0775973 4.26264 -1.72208e-08 4 0C3.73736 1.72208e-08 3.47728 0.0775973 3.23463 0.228361C2.99198 0.379126 2.7715 0.600104 2.58579 0.87868C2.40007 1.15726 2.25275 1.48797 2.15224 1.85195C2.05173 2.21593 2 2.60603 2 3L2.79701 3C2.79701 2.76303 2.82813 2.52838 2.88858 2.30945C2.94904 2.09052 3.03765 1.8916 3.14936 1.72404C3.26107 1.55648 3.39368 1.42356 3.53964 1.33287C3.68559 1.24219 3.84202 1.19552 4 1.19552C4.15798 1.19552 4.31441 1.24219 4.46036 1.33287C4.60632 1.42356 4.73893 1.55648 4.85064 1.72404C4.96235 1.8916 5.05096 2.09052 5.11142 2.30945C5.17187 2.52838 5.20299 2.76303 5.20299 3H6Z"/>
</mask>
<path d="M6 3C6 2.60603 5.94827 2.21593 5.84776 1.85195C5.74725 1.48797 5.59993 1.15726 5.41421 0.87868C5.2285 0.600104 5.00802 0.379125 4.76537 0.228361C4.52272 0.0775973 4.26264 -1.72208e-08 4 0C3.73736 1.72208e-08 3.47728 0.0775973 3.23463 0.228361C2.99198 0.379126 2.7715 0.600104 2.58579 0.87868C2.40007 1.15726 2.25275 1.48797 2.15224 1.85195C2.05173 2.21593 2 2.60603 2 3L2.79701 3C2.79701 2.76303 2.82813 2.52838 2.88858 2.30945C2.94904 2.09052 3.03765 1.8916 3.14936 1.72404C3.26107 1.55648 3.39368 1.42356 3.53964 1.33287C3.68559 1.24219 3.84202 1.19552 4 1.19552C4.15798 1.19552 4.31441 1.24219 4.46036 1.33287C4.60632 1.42356 4.73893 1.55648 4.85064 1.72404C4.96235 1.8916 5.05096 2.09052 5.11142 2.30945C5.17187 2.52838 5.20299 2.76303 5.20299 3H6Z" fill="black" stroke="#5D6060" stroke-width="2" mask="url(#path-3-inside-1_965_25)"/>
</svg>
